<svg xmlns="http://www.w3.org/2000/svg" viewBox="0 0 700 980">
<defs>
  <linearGradient id="bg" x1="0" y1="0" x2="1" y2="1"><stop stop-color="#fff4f6"/><stop offset="1" stop-color="#f7dce4"/></linearGradient>
  <filter id="soft"><feGaussianBlur stdDeviation="18"/></filter>
</defs>
<rect width="700" height="980" rx="34" fill="url(#bg)"/>
<rect x="20" y="20" width="660" height="940" rx="28" fill="none" stroke="#d7b591" stroke-opacity=".48" stroke-width="2"/>
<path d="M42 88h58V42M600 42v46h58M42 892h58v46M600 938v-46h58" fill="none" stroke="#d7b591" stroke-opacity=".5" stroke-width="3"/>
<path d="M35 770C210 655 360 600 660 570" fill="none" stroke="#8f674a" stroke-width="18" stroke-linecap="round"/><g fill="#ef9db4" stroke="#d66e8c" stroke-width="4"><path d="M170 660C105 610 105 520 185 485c65 55 55 135-15 175Z"/><path d="M340 610C270 550 285 455 370 420c66 66 45 150-30 190Z"/><path d="M520 580C455 530 475 448 555 430c52 59 31 121-35 150Z"/><path d="M620 565C585 525 602 470 650 462c35 42 18 86-30 103Z"/></g>
</svg>