<svg xmlns="http://www.w3.org/2000/svg" viewBox="0 0 700 980">
<defs>
  <linearGradient id="bg" x1="0" y1="0" x2="1" y2="1"><stop stop-color="#fbf3e7"/><stop offset="1" stop-color="#ead7bc"/></linearGradient>
  <filter id="soft"><feGaussianBlur stdDeviation="18"/></filter>
</defs>
<rect width="700" height="980" rx="34" fill="url(#bg)"/>
<rect x="20" y="20" width="660" height="940" rx="28" fill="none" stroke="#d7b591" stroke-opacity=".48" stroke-width="2"/>
<path d="M42 88h58V42M600 42v46h58M42 892h58v46M600 938v-46h58" fill="none" stroke="#d7b591" stroke-opacity=".5" stroke-width="3"/>
<g fill="#ba9064" opacity=".16"><path d="M0 720L170 540 260 650 390 485 700 740V980H0Z"/><path d="M0 790L180 650 300 760 470 610 700 800V980H0Z" opacity=".6"/></g><circle cx="350" cy="680" r="105" fill="#fff3d7" opacity=".65"/><path d="M350 610c-28 0-45 22-45 49 0 18 8 31 19 40-55 28-83 78-87 125h226c-4-47-32-97-87-125 11-9 19-22 19-40 0-27-17-49-45-49Z" fill="#9d6f45" opacity=".85"/><ellipse cx="350" cy="865" rx="190" ry="20" fill="#b68e66" opacity=".25"/>
</svg>